<?xml version="1.0" encoding="utf-8"?>
<!-- Generator: Adobe Illustrator 27.6.1, SVG Export Plug-In . SVG Version: 6.00 Build 0)  -->
<svg version="1.1" xmlns="http://www.w3.org/2000/svg" xmlns:xlink="http://www.w3.org/1999/xlink" x="0px" y="0px"
	 viewBox="0 0 1000 1000" style="enable-background:new 0 0 1000 1000;" xml:space="preserve">
<style type="text/css">
	.st0{display:none;}
	.st1{fill:#FF5326;}
	.st2{fill:#FFC907;}
	.st3{fill:#00E7FF;stroke:#3D002C;stroke-width:20;stroke-linejoin:round;stroke-miterlimit:10;}
	.st4{fill:#EFC9CE;}
	.st5{fill:#FCFFFC;}
	.st6{fill:#FDC546;}
	.st7{fill:#FF3E3E;}
	.st8{fill:none;stroke:#3D002C;stroke-width:15;stroke-linejoin:round;stroke-miterlimit:10;}
	.st9{fill:none;stroke:#FFFFFF;stroke-width:20;stroke-linecap:round;stroke-linejoin:round;stroke-miterlimit:10;}
	.st10{fill:none;stroke:#3D002C;stroke-width:20;stroke-linecap:round;stroke-linejoin:round;stroke-miterlimit:10;}
	.st11{fill:#3D002C;}
	.st12{fill:url(#SVGID_1_);}
	.st13{fill:url(#SVGID_00000126288399298324781940000009249323220079149503_);}
	.st14{fill:url(#SVGID_00000070098365469764435480000010036058300343614649_);}
	.st15{fill:url(#SVGID_00000115510669199965221230000010646680056274251662_);}
	.st16{fill:url(#SVGID_00000077297870776156458500000008974363883357548976_);}
	.st17{fill:url(#SVGID_00000140735547026878512150000014397334129334688156_);}
</style>
<g id="Layer_1" class="st0">
	
		<image style="display:inline;overflow:visible;" width="1024" height="1024" xlink:href="../Downloads/_36668486-53d2-404c-a7c8-77d12ce54240.jpg"  transform="matrix(1.0379 0 0 1.0379 1089.5714 -11)">
	</image>
</g>
<g id="Layer_2">
	<g>
		<g>
			
				<rect x="167.3" y="344" transform="matrix(0.3827 -0.9239 0.9239 0.3827 -234.6236 392.373)" class="st1" width="18.1" height="55.6"/>
			
				<rect x="165.1" y="357.5" transform="matrix(0.3827 -0.9239 0.9239 0.3827 -250.603 395.5515)" class="st2" width="11.2" height="55.6"/>
		</g>
		<g>
			
				<rect x="245.2" y="231.3" transform="matrix(0.7071 -0.7071 0.7071 0.7071 -108.7621 255.6884)" class="st1" width="18.1" height="55.6"/>
			
				<rect x="238.3" y="241.7" transform="matrix(0.7071 -0.7071 0.7071 0.7071 -119.1303 251.3938)" class="st2" width="11.2" height="55.6"/>
		</g>
		<g>
			
				<rect x="364.3" y="152.7" transform="matrix(0.9239 -0.3827 0.3827 0.9239 -40.6412 156.6048)" class="st1" width="18.1" height="55.6"/>
			
				<rect x="354.2" y="158.3" transform="matrix(0.9239 -0.3827 0.3827 0.9239 -43.8197 151.8478)" class="st2" width="11.2" height="55.6"/>
		</g>
		<g>
			<rect x="119.7" y="496.6" class="st1" width="55.6" height="18.1"/>
			<rect x="119.7" y="514.7" class="st2" width="55.6" height="11.2"/>
		</g>
		<g>
			
				<rect x="218.5" y="746.3" transform="matrix(0.7071 -0.7071 0.7071 0.7071 -461.9832 395.3611)" class="st1" width="55.6" height="18.1"/>
			
				<rect x="228.8" y="760.1" transform="matrix(0.7071 -0.7071 0.7071 0.7071 -466.2778 405.7293)" class="st2" width="55.6" height="11.2"/>
		</g>
		<g>
			
				<rect x="144.1" y="631.3" transform="matrix(0.9239 -0.3827 0.3827 0.9239 -231.9741 114.5367)" class="st1" width="55.6" height="18.1"/>
			
				<rect x="149.7" y="648.3" transform="matrix(0.9239 -0.3827 0.3827 0.9239 -236.7311 117.7152)" class="st2" width="55.6" height="11.2"/>
		</g>
		<g>
			
				<rect x="811.4" y="622.9" transform="matrix(0.3827 -0.9239 0.9239 0.3827 -94.7352 1159.6788)" class="st1" width="18.1" height="55.6"/>
			
				<rect x="820.4" y="609.4" transform="matrix(0.3827 -0.9239 0.9239 0.3827 -78.7558 1156.5004)" class="st2" width="11.2" height="55.6"/>
		</g>
		<g>
			
				<rect x="733.4" y="735.6" transform="matrix(0.7071 -0.7071 0.7071 0.7071 -322.3105 748.5822)" class="st1" width="18.1" height="55.6"/>
			
				<rect x="747.2" y="725.2" transform="matrix(0.7071 -0.7071 0.7071 0.7071 -311.9424 752.8768)" class="st2" width="11.2" height="55.6"/>
		</g>
		<g>
			<rect x="821.5" y="507.8" class="st1" width="55.6" height="18.1"/>
			<rect x="821.5" y="496.6" class="st2" width="55.6" height="11.2"/>
		</g>
		<g>
			<rect x="494.9" y="118.6" class="st1" width="18.1" height="55.6"/>
			<rect x="483.7" y="118.6" class="st2" width="11.2" height="55.6"/>
		</g>
		<g>
			
				<rect x="605.9" y="176" transform="matrix(0.3827 -0.9239 0.9239 0.3827 220.2515 699.7231)" class="st1" width="55.6" height="18.1"/>
			
				<rect x="592.4" y="173.8" transform="matrix(0.3827 -0.9239 0.9239 0.3827 217.073 683.7437)" class="st2" width="55.6" height="11.2"/>
		</g>
		<g>
			
				<rect x="722.7" y="258.1" transform="matrix(0.7071 -0.7071 0.7071 0.7071 30.9105 608.9095)" class="st1" width="55.6" height="18.1"/>
			
				<rect x="712.3" y="251.2" transform="matrix(0.7071 -0.7071 0.7071 0.7071 35.2051 598.5413)" class="st2" width="55.6" height="11.2"/>
		</g>
		<g>
			
				<rect x="797" y="373.1" transform="matrix(0.9239 -0.3827 0.3827 0.9239 -83.4431 344.7257)" class="st1" width="55.6" height="18.1"/>
			
				<rect x="791.4" y="362.9" transform="matrix(0.9239 -0.3827 0.3827 0.9239 -78.6862 341.5472)" class="st2" width="55.6" height="11.2"/>
		</g>
	</g>
	<circle class="st3" cx="498.4" cy="511.2" r="282.5"/>
	<g>
		<g>
			<g>
				<g>
					<path class="st4" d="M582.8,703.7V723c0,3.3-2.7,6-6,6h-30.8c3.3,0,6-2.7,6-6v-19.2c0-3.3-2.7-6-6-6h30.8
						C580.1,697.7,582.8,700.4,582.8,703.7z"/>
					<path class="st4" d="M582.8,735v19.2c0,3.3-2.7,6-6,6h-30.8c3.3,0,6-2.7,6-6V735c0-3.3-2.7-6-6-6h30.8
						C580.1,729,582.8,731.7,582.8,735z"/>
					<path class="st4" d="M582.8,766.2v19.2c0,3.3-2.7,6-6,6h-30.8c3.3,0,6-2.7,6-6v-19.2c0-3.3-2.7-6-6-6h30.8
						C580.1,760.2,582.8,762.9,582.8,766.2z"/>
					<path class="st4" d="M576,791.5l-10,20.1c-4,8-11,12.9-18.6,13h-31c7.7,0,14.8-4.9,18.8-13l10-20.1H576z"/>
					<path class="st4" d="M547.4,824.5l-9.1,17.2c-4.8,9.1-13.1,14.6-22,14.6h-19.5c8.9,0,17.2-5.5,22-14.6l9.1-17.2H547.4z"/>
				</g>
				<g>
					<path class="st5" d="M552.1,703.7V723c0,3.3-2.7,6-6,6H419.9c-3.3,0-6-2.7-6-6v-19.2c0-3.3,2.7-6,6-6h126.2
						C549.4,697.7,552.1,700.4,552.1,703.7z"/>
					<path class="st5" d="M552.1,735v19.2c0,3.3-2.7,6-6,6H419.9c-3.3,0-6-2.7-6-6V735c0-3.3,2.7-6,6-6h126.2
						C549.4,729,552.1,731.7,552.1,735z"/>
					<path class="st5" d="M552.1,766.2v19.2c0,3.3-2.7,6-6,6H419.9c-3.3,0-6-2.7-6-6v-19.2c0-3.3,2.7-6,6-6h126.2
						C549.4,760.2,552.1,762.9,552.1,766.2z"/>
					<path class="st5" d="M545.2,791.5l-10,20.1c-4,8.1-11.1,13-18.8,13h-67.1c-7.6-0.1-14.7-5-18.6-13l-10-20.1H545.2z"/>
					<path class="st5" d="M527.9,824.5l-9.1,17.2c-4.8,9.1-13.1,14.6-22,14.6h-16.3c-8.9,0-17.2-5.5-22-14.6l-9.1-17.2H527.9z"/>
				</g>
			</g>
			<g>
				<g>
					<path class="st6" d="M634.6,396.3c0.3,43.6-13.5,83.8-36.9,116.1c-2.4,3.4-4.8,6.8-7.1,10.3c-35.6,54.9-98.4,86.3-163.5,79.4
						c-16.2-1.7-29.9-5.1-39.7-8.9c-7.4-29.2-20.4-56.9-38.1-81.5c-22.9-31.9-36.4-71.3-36.4-114c0-97.2,70-177.5,160.7-189.9
						C563.8,220.2,633.9,300.1,634.6,396.3z"/>
					<path class="st7" d="M683.6,396.3c0.3,43.6-13.5,83.8-36.9,116.1c-28.7,39.6-44.9,87.3-44.9,136.8v6.3
						c0,23.3-18.3,42.2-40.9,42.2H435.7c-22.6,0-40.9-18.9-40.9-42.2v-4.2c0-19.8-2.5-39.2-7.3-58.1c9.8,3.8,23.5,7.2,39.7,8.9
						c65.1,6.9,127.9-24.4,163.5-79.4c2.3-3.5,4.6-6.9,7.1-10.3c23.4-32.3,37.2-72.6,36.9-116.1c-0.7-96.2-70.8-176.1-160.8-188.5
						c8.5-1.2,17.1-1.7,25.9-1.7C600.6,206.9,682.9,292,683.6,396.3z"/>
				</g>
				<path class="st8" d="M683.6,396.3c0.3,43.6-13.5,83.8-36.9,116.1c-28.7,39.6-44.9,87.3-44.9,136.8v6.3
					c0,23.3-18.3,42.3-40.9,42.3H435.7c-22.6,0-40.9-18.9-40.9-42.3v-4.2c0-50.4-16.3-99.1-45.4-139.6
					c-22.9-31.9-36.4-71.3-36.4-114c0-106.3,83.7-192.3,186.6-191.6C600.6,206.9,682.9,292,683.6,396.3z"/>
				<g>
					<path class="st8" d="M576.8,729H419.9c-3.3,0-6-2.7-6-6v-19.2c0-3.3,2.7-6,6-6h156.9c3.3,0,6,2.7,6,6V723
						C582.8,726.3,580.1,729,576.8,729z"/>
					<path class="st8" d="M576.8,760.2H419.9c-3.3,0-6-2.7-6-6V735c0-3.3,2.7-6,6-6h156.9c3.3,0,6,2.7,6,6v19.2
						C582.8,757.5,580.1,760.2,576.8,760.2z"/>
					<path class="st8" d="M576.8,791.5H419.9c-3.3,0-6-2.7-6-6v-19.2c0-3.3,2.7-6,6-6h156.9c3.3,0,6,2.7,6,6v19.2
						C582.8,788.8,580.1,791.5,576.8,791.5z"/>
					<path class="st8" d="M547.2,824.5h-97.7c-7.7,0-14.8-4.9-18.8-13l-10-20.1H576l-10,20.1C562,819.6,554.9,824.5,547.2,824.5z"/>
					<path class="st8" d="M516.3,856.4h-35.9c-8.9,0-17.2-5.5-22-14.6l-9.1-17.2h98.1l-9.1,17.2
						C533.5,850.9,525.2,856.4,516.3,856.4z"/>
				</g>
			</g>
		</g>
		<g>
			<path class="st9" d="M401.8,511.7c-22.9-29.9-36.4-66.9-36.4-107c0-60.7,31-114.3,78.4-146.9"/>
			<path class="st10" d="M468.8,318.6c54-7.9,74.6,51.4,37.9,96"/>
			<path class="st9" d="M373.9,296.5c0,0-15.4,16.5-24.9,46.2"/>
			<path class="st10" d="M414.5,339.3c0,0-23,39.3-14,93.3"/>
		</g>
	</g>
	<g>
		
			<ellipse transform="matrix(0.2636 -0.9646 0.9646 0.2636 -185.8846 598.9437)" class="st11" cx="299.3" cy="421.2" rx="8.8" ry="18.9"/>
		
			<ellipse transform="matrix(0.6939 -0.7201 0.7201 0.6939 -185.2587 338.2385)" class="st11" cx="305.2" cy="387" rx="8.8" ry="15.8"/>
		
			<ellipse transform="matrix(0.6434 -0.7655 0.7655 0.6434 -158.7917 351.5774)" class="st11" cx="298" cy="346.2" rx="15.8" ry="8.8"/>
		
			<ellipse transform="matrix(0.4565 -0.8897 0.8897 0.4565 -206.072 458.2119)" class="st11" cx="272" cy="397.8" rx="15.8" ry="8.8"/>
		
			<ellipse transform="matrix(0.4565 -0.8897 0.8897 0.4565 -257.4401 458.9746)" class="st11" cx="247" cy="440.2" rx="15.8" ry="8.8"/>
	</g>
	<g>
		
			<ellipse transform="matrix(0.9948 -0.102 0.102 0.9948 -69.3881 43.3006)" class="st11" cx="388.7" cy="700.1" rx="15.8" ry="8.8"/>
		
			<ellipse transform="matrix(0.9948 -0.102 0.102 0.9948 -72.8592 41.659)" class="st11" cx="370.9" cy="733.2" rx="15.8" ry="8.8"/>
		
			<ellipse transform="matrix(0.753 -0.658 0.658 0.753 -374.2099 398.5636)" class="st11" cx="343.8" cy="697.7" rx="8.8" ry="15.8"/>
	</g>
	<g>
		<ellipse transform="matrix(0.903 -0.4296 0.4296 0.903 -237.4623 334.03)" class="st11" cx="621" cy="692.9" rx="15.8" ry="8.8"/>
		
			<ellipse transform="matrix(0.903 -0.4296 0.4296 0.903 -221.8309 336.6935)" class="st11" cx="634.7" cy="659.6" rx="15.8" ry="8.8"/>
		
			<ellipse transform="matrix(0.2673 -0.9636 0.9636 0.2673 -223.6447 1145.1125)" class="st11" cx="641.2" cy="719.6" rx="8.8" ry="15.8"/>
		
			<ellipse transform="matrix(0.2673 -0.9636 0.9636 0.2673 -161.8428 1146.6753)" class="st11" cx="673.1" cy="679.8" rx="8.8" ry="15.8"/>
	</g>
	<g>
		
			<ellipse transform="matrix(7.693384e-02 -0.997 0.997 7.693384e-02 279.3512 1086.2172)" class="st11" cx="726.3" cy="392.2" rx="15.8" ry="8.8"/>
		
			<ellipse transform="matrix(0.901 -0.4338 0.4338 0.901 -116.7088 364.9859)" class="st11" cx="741.4" cy="438.2" rx="8.8" ry="15.8"/>
		
			<ellipse transform="matrix(0.798 -0.6026 0.6026 0.798 -68.6471 494.0415)" class="st11" cx="702.7" cy="349.4" rx="8.8" ry="15.8"/>
	</g>
	<g>
		<g>
			<g>
				<path d="M180.4,713.6c-7.8,0-15-2.8-21-8.1c-6.6-5.9-10.7-14.8-12.4-26.5l-18.5-130.1l-25.6,3.6c-2.2,0.3-4.4,0.5-6.5,0.5
					c-7.3,0-13.6-1.9-18.8-5.8c-6.6-4.9-10.7-12.1-11.9-20.9c-1.3-9.1,0.8-17.4,6-24c5.1-6.4,12.6-10.4,22.4-11.7l116.4-16.6
					c2.3-0.3,4.5-0.5,6.6-0.5c7.4,0,13.8,2,18.9,5.8c6.6,4.9,10.8,12.2,12,21c1.3,8.9-0.8,17-5.9,23.6c-5.1,6.5-12.7,10.6-22.8,12
					l-25.6,3.6l18.5,130.1c1.7,11.7,0.2,21.5-4.5,28.9c-5.1,8.2-12.9,13.2-22.5,14.6C183.6,713.4,182,713.6,180.4,713.6z"/>
				<path class="st11" d="M217,484.6c5,0,9.1,1.2,12.3,3.6c4.3,3.2,6.9,7.8,7.7,13.7c0.8,5.9-0.4,11.1-3.7,15.3
					c-3.3,4.2-8.5,6.8-15.7,7.9h0l-36.5,5.2l20.1,140.9c1.3,9.1,0.3,16.4-2.9,21.6c-3.4,5.4-8.3,8.6-14.7,9.5
					c-1.1,0.2-2.2,0.2-3.3,0.2c-5.1,0-9.7-1.8-13.6-5.3c-4.6-4.1-7.6-10.8-8.9-19.8l-20.1-140.9l-36.5,5.2c-1.7,0.2-3.4,0.4-5,0.4
					c-4.9,0-9-1.2-12.2-3.6c-4.2-3.2-6.8-7.8-7.6-13.7c-0.9-6.1,0.4-11.4,3.7-15.6c3.3-4.1,8.5-6.7,15.3-7.7L212,484.9
					C213.7,484.7,215.4,484.6,217,484.6 M217,462.6c-2.6,0-5.3,0.2-8.1,0.6L92.5,479.7c-15.7,2.2-24.7,9.8-29.5,15.8
					c-7.2,9-10,20.2-8.3,32.4c1.7,11.7,7.3,21.5,16.2,28.2c7,5.2,15.7,8,25.4,8c2.6,0,5.3-0.2,8.1-0.6l14.7-2.1l17,119.2
					c2,14.3,7.4,25.4,16,33.1c8,7.2,17.8,10.9,28.3,10.9c2.1,0,4.3-0.2,6.4-0.5c12.8-1.8,23.5-8.8,30.3-19.7c6-9.7,8.1-21.9,6-36.3
					l-17-119.2l14.7-2.1c16.2-2.3,25.2-10.1,30-16.2c7-9,9.8-20,8.1-31.9c-1.7-11.7-7.3-21.5-16.3-28.2
					C235.5,465.3,226.7,462.6,217,462.6L217,462.6z"/>
			</g>
			<g>
				<path d="M290.6,697.8c-8.2,0-15.6-3-21.4-8.7c-6.1-6-10-14.7-11.6-26l-21.8-153c-1.8-12.5-0.2-22.2,5-29.8
					c5.4-7.9,14.2-12.8,26.3-14.5l59.5-8.5c8.8-1.3,16.6-1.9,23.1-2l0.7,0c7.2,0,14.1,1,20.3,3.1c7.8,2.4,15.1,6.4,21.6,11.9
					c6.5,5.5,11.8,12.2,15.9,20c3.9,7.6,6.5,15.9,7.8,24.7c2.6,18.3-0.2,34.1-8.5,47c-4,6.3-9.4,12-16,17c1,0.8,1.9,1.7,2.8,2.6
					c7.5,7.1,14.5,14.9,20.8,23.2c6.2,8.2,11.3,15.9,15.2,22.8c4.6,8.3,6.9,13.8,7.6,18.4c0.7,5.2,0,10.5-2.1,15.7
					c-2.1,5.2-5.5,9.5-9.9,12.9c-4.4,3.4-9.7,5.6-15.6,6.4c-1.7,0.2-3.4,0.4-5.1,0.4c-5.4,0-10.4-1.3-14.9-3.8
					c-4.6-2.6-8.8-6.1-12.4-10.4c-2.6-3.2-6.2-7.8-10.7-13.8c0,0-18.5-24.8-18.5-24.8c-6.1-8.4-11.3-14.6-15.5-18.5
					c-4.1-3.9-6.9-5.1-8.2-5.4c-1.3-0.4-3-0.6-5-0.6c-1.2,0-2.6,0.1-4,0.2l7,49.5c1.7,11.9,0.2,21.6-4.5,29.1
					c-5.1,8.1-12.9,13.1-22.6,14.5C294.1,697.7,292.3,697.8,290.6,697.8z M307.6,546.8l18.4-2.6c7.5-1.1,13.5-2.6,18-4.6
					c2.9-1.3,4.8-2.8,5.8-4.5c0.4-0.7,1.3-2.9,0.6-8c-0.4-2.8-1.3-5.1-2.8-6.9c-1.3-1.6-2.8-2.6-4.9-3.2c-0.1,0-1.1-0.3-4.1-0.3
					c-3.9,0-9.1,0.5-15.4,1.4l-19.4,2.8L307.6,546.8z"/>
				<path class="st11" d="M350.3,466.5c6.1,0,11.8,0.9,17,2.6c6.5,1.9,12.5,5.2,17.8,9.8c5.4,4.5,9.8,10.1,13.2,16.7
					c3.3,6.5,5.6,13.6,6.7,21.2c2.2,15.6-0.1,28.9-6.9,39.5c-5.7,8.9-14.6,16.3-26.5,22.1c5.1,2.9,10.1,6.7,15.1,11.4
					c7.1,6.7,13.7,14,19.6,21.8c5.9,7.8,10.7,15,14.3,21.5c3.8,6.9,5.8,11.5,6.3,14.6c0.5,3.2,0,6.6-1.4,10
					c-1.4,3.4-3.6,6.2-6.5,8.4c-2.9,2.2-6.4,3.7-10.5,4.2c-1.2,0.2-2.4,0.3-3.5,0.3c-3.5,0-6.7-0.8-9.5-2.4
					c-3.5-1.9-6.6-4.6-9.3-7.9c-2.5-3-6-7.5-10.4-13.4l-18.5-24.8c-6.5-8.9-12.2-15.6-16.9-20c-4.4-4.2-8.7-6.8-12.7-8
					c-2.3-0.7-5-1-8-1c-2.2,0-4.6,0.2-7.1,0.5h0l-9.4,1.3l8.6,60.4c1.3,9.2,0.3,16.5-2.9,21.7c-3.4,5.3-8.3,8.5-14.8,9.4
					c-1.2,0.2-2.5,0.3-3.6,0.3c-5.4,0-10-1.9-13.8-5.5c-4.3-4.2-7.2-10.8-8.4-19.6l-21.8-153c-1.4-9.7-0.3-16.9,3.2-22.1
					c3.5-5.2,9.8-8.5,18.7-9.8l59.5-8.5c8.3-1.2,15.6-1.8,21.7-1.9C350,466.5,350.2,466.5,350.3,466.5 M298.3,559.3l29.3-4.2
					c8.4-1.2,15.5-3,20.9-5.4c5-2.2,8.7-5.3,10.9-9c2.2-3.8,2.8-8.8,1.9-15c-0.7-4.8-2.4-9-5.1-12.3c-2.7-3.3-6.1-5.5-10.2-6.8
					c-1.4-0.4-3.6-0.8-7.2-0.8c-3.9,0-9.3,0.4-17,1.5l-30.3,4.3L298.3,559.3 M350.3,444.5c-0.2,0-0.5,0-0.7,0c0,0,0,0-0.1,0
					c-7,0.1-15.3,0.8-24.6,2.1l-59.5,8.5c-19,2.7-28.9,11.9-33.8,19.2c-6.7,9.9-8.9,22.2-6.8,37.5l21.8,152.9
					c2,13.7,7,24.6,14.9,32.3c7.9,7.7,18,11.8,29.1,11.8c2.2,0,4.5-0.2,6.7-0.5c12.8-1.8,23.6-8.7,30.3-19.5
					c6.1-9.7,8.1-22,6.1-36.5l-4.3-30c2.5,2.9,5.9,7,10.2,12.8c0,0.1,0.1,0.1,0.1,0.2l18.5,24.8c4.6,6.2,8.3,11,11.1,14.3
					c4.5,5.4,9.7,9.7,15.5,13c6.1,3.4,12.9,5.2,20.2,5.2c2.2,0,4.4-0.2,6.6-0.5c7.8-1.1,14.8-4,20.8-8.6c6-4.6,10.5-10.5,13.3-17.4
					c2.9-7.1,3.9-14.3,2.8-21.5c-0.9-6-3.4-12.4-8.8-22.2c-4.1-7.4-9.5-15.5-16-24.1c-5-6.6-10.4-12.9-16.2-18.8
					c3.4-3.6,6.5-7.4,9-11.4c9.7-15.2,13.1-33.5,10.1-54.5c-1.4-10-4.4-19.5-8.9-28.2c-4.7-9.1-11-17-18.5-23.4
					c-7.6-6.4-16.1-11.1-25.4-13.9C366.7,445.7,358.7,444.5,350.3,444.5L350.3,444.5z M316.4,530.2l8.5-1.2c7.3-1,11.6-1.3,13.9-1.3
					c0.2,0,0.4,0,0.6,0c0.1,0.2,0.1,0.5,0.2,0.9c0,0.3,0.1,0.6,0.1,0.8c0,0,0,0,0,0c-2.5,1.1-7.1,2.6-15.2,3.8l-7.5,1.1L316.4,530.2
					L316.4,530.2z"/>
			</g>
			<g>
				<path d="M468.1,672.6c-7.7,0-15-2.9-21-8.3c-6.5-5.9-10.7-14.8-12.3-26.3l-22.3-156.6c-1.6-11.5-0.1-21.2,4.4-28.7
					c5.1-8.3,12.8-13.4,22.5-14.7c1.7-0.2,3.4-0.4,5-0.4c7.8,0,15,2.8,20.9,8c6.6,5.9,10.8,14.8,12.5,26.4l22.3,156.6
					c1.7,11.7,0.1,21.4-4.5,28.9c-5.1,8.2-13,13.3-22.8,14.7C471.2,672.5,469.6,672.6,468.1,672.6z"/>
				<path class="st11" d="M444.4,448.6c5.1,0,9.7,1.8,13.6,5.2c4.6,4.1,7.6,10.7,8.9,19.8l22.3,156.6c1.3,9,0.3,16.3-3,21.5
					c-3.4,5.5-8.4,8.7-15,9.6c-1.1,0.2-2.1,0.2-3.2,0.2c-5,0-9.6-1.8-13.6-5.4c-4.6-4.2-7.6-10.8-8.8-19.7l-22.3-156.6
					c-1.3-8.9-0.3-16.1,2.9-21.3c3.3-5.5,8.3-8.7,14.7-9.6C442.2,448.7,443.3,448.6,444.4,448.6 M444.4,426.6
					c-2.1,0-4.3,0.2-6.5,0.5c-12.8,1.8-23.6,8.9-30.3,19.9c-6,9.7-8,21.8-6,36l22.3,156.6c2,14.1,7.3,25.2,15.8,32.9
					c8,7.3,17.8,11.1,28.3,11.1c2.1,0,4.2-0.2,6.3-0.5c12.9-1.8,23.8-8.9,30.6-19.8c6.1-9.8,8.1-21.9,6.1-36.2l-22.3-156.6
					c-2-14.3-7.4-25.5-16-33.1C464.7,430.4,454.9,426.6,444.4,426.6L444.4,426.6z"/>
			</g>
			<g>
				<path d="M586.7,655.6c-5.2,0-10.1-1-14.6-3c-5.8-2.6-10.8-6.4-14.8-11.3c-3.2-3.9-6.2-8.5-8.8-13.5c-2.2-4.3-4.6-9-6.9-13.8
					c0,0-61.4-122.7-61.4-122.7c-1-2.1-2.1-4.2-3.1-6.3c-1.4-2.7-2.7-5.6-3.8-8.8c-1.2-3.5-2-6.5-2.4-9.3
					c-1.2-8.1,0.8-16.2,5.5-23.4c5.1-7.8,12.7-12.5,21.9-13.9c1.9-0.3,3.7-0.4,5.4-0.4c8.9,0,16.5,3.4,21.9,9.9
					c4.1,4.9,8.2,12,12.8,22.2l39.7,84.6l14.6-93.3c1.2-7.9,2.1-13.1,2.9-16.4c1.2-5.1,3.6-9.9,7.2-14.2c4.5-5.3,10.9-8.7,18.7-9.8
					c1.4-0.2,2.9-0.3,4.4-0.3c4.4,0,8.7,1,12.8,2.8c5.2,2.4,9.5,5.9,12.9,10.6c3.3,4.6,5.4,9.6,6.2,14.8c0.4,3,0.5,6.2,0.3,9.6
					c-0.2,2.9-0.6,5.8-1.1,8.7c-0.4,2.2-0.8,4.5-1.2,6.9c0,0.1-25.3,136.3-25.3,136.3c-0.9,5.2-1.8,10.3-2.7,15.1
					c-1.1,5.7-2.7,10.9-4.6,15.5c-2.5,5.7-6.1,10.7-10.9,14.8c-5.2,4.5-11.8,7.3-19.4,8.4C590.8,655.4,588.7,655.6,586.7,655.6z"/>
				<path class="st11" d="M626.1,422.7c2.8,0,5.6,0.6,8.2,1.8c3.5,1.6,6.4,4,8.6,7.1c2.3,3.1,3.7,6.4,4.1,9.9
					c0.3,2.2,0.4,4.7,0.2,7.3c-0.2,2.5-0.5,5-0.9,7.4c-0.4,2.3-0.8,4.7-1.2,7.1l-25.3,136.2c-0.8,5.1-1.7,10.2-2.7,14.9
					c-1,4.9-2.3,9.4-4,13.3c-1.8,4.2-4.5,7.8-8,10.8c-3.6,3.1-8.3,5-13.8,5.8c-1.6,0.2-3.2,0.3-4.7,0.3c-3.7,0-7.1-0.7-10.1-2
					c-4.2-1.9-7.8-4.6-10.8-8.2c-2.7-3.4-5.3-7.3-7.6-11.7c-2.2-4.2-4.5-8.8-6.7-13.5l-61.3-122.6c-1.1-2.2-2.2-4.4-3.2-6.6
					c-1.2-2.3-2.2-4.8-3.2-7.5c-1-2.8-1.6-5.1-1.9-7.2c-0.8-5.5,0.5-10.8,3.8-15.8c3.4-5.1,8.2-8.2,14.3-9c1.4-0.2,2.7-0.3,3.9-0.3
					c5.6,0,10.2,2,13.4,5.9c3.4,4.1,7.1,10.6,11.3,19.8l55,117.1l20.2-128.8c1.2-7.5,2.1-12.6,2.8-15.6c0.8-3.4,2.5-6.7,5-9.7
					c2.7-3.2,6.7-5.2,11.8-6C624.2,422.8,625.2,422.7,626.1,422.7 M626.1,400.7c-2,0-4,0.1-5.9,0.4c-10.5,1.5-19.3,6.2-25.6,13.6
					c-4.7,5.7-8,12-9.5,18.8c-0.8,3.6-1.8,9.1-3.1,17.3l-9.1,57.8l-24.4-52c-5.1-11.1-9.6-18.9-14.3-24.6
					c-7.4-8.9-18.2-13.9-30.4-13.9c-2.3,0-4.6,0.2-7,0.5c-12.2,1.7-22.7,8.4-29.6,18.7c-6.3,9.5-8.8,20.2-7.2,31
					c0.5,3.6,1.5,7.3,3,11.5c1.3,3.6,2.7,7,4.4,10.1c1,1.9,2,4,3,6c0.1,0.1,0.1,0.2,0.2,0.3l61.2,122.4c2.4,4.9,4.7,9.6,7,14.1
					c3,5.7,6.3,10.9,10,15.4c5.2,6.3,11.5,11.2,18.9,14.5c5.8,2.6,12.2,3.9,19,3.9c2.6,0,5.2-0.2,7.8-0.6c9.8-1.4,18.2-5.1,25-10.9
					c6.1-5.2,10.8-11.6,13.9-18.9c2.3-5.3,4-11.2,5.3-17.7c1-4.9,1.9-10,2.8-15.3l25.2-136c0-0.1,0.1-0.3,0.1-0.4
					c0.4-2.4,0.8-4.6,1.2-6.7c0.6-3.2,1-6.5,1.2-9.9c0.3-4.2,0.2-8.2-0.4-11.9c-1-7.1-3.8-13.7-8.2-19.7
					c-4.5-6.2-10.3-10.9-17.2-14.1C637.9,402,632.1,400.7,626.1,400.7L626.1,400.7z"/>
			</g>
			<g>
				<path d="M708.7,638.3c-7.7,0-15-2.9-21-8.3c-6.5-5.9-10.7-14.8-12.3-26.3l-22.3-156.6c-1.6-11.5-0.1-21.2,4.4-28.7
					c5.1-8.3,12.8-13.4,22.5-14.7c1.7-0.2,3.4-0.4,5-0.4c7.8,0,15,2.8,20.9,8c6.6,5.9,10.8,14.8,12.5,26.4l22.3,156.6
					c1.7,11.7,0.1,21.4-4.5,28.9c-5.1,8.2-13,13.3-22.8,14.7C711.8,638.2,710.2,638.3,708.7,638.3z"/>
				<path class="st11" d="M685,414.4c5.1,0,9.7,1.8,13.6,5.2c4.6,4.1,7.6,10.7,8.9,19.8L729.8,596c1.3,9,0.3,16.3-3,21.5
					c-3.4,5.5-8.4,8.7-15,9.6c-1.1,0.2-2.1,0.2-3.2,0.2c-5,0-9.6-1.8-13.6-5.4c-4.6-4.2-7.6-10.8-8.8-19.7L664,445.6
					c-1.3-8.9-0.3-16.1,2.9-21.3c3.3-5.5,8.3-8.7,14.7-9.6C682.7,414.4,683.9,414.4,685,414.4 M685,392.4c-2.1,0-4.3,0.2-6.5,0.5
					c-12.8,1.8-23.6,8.9-30.3,19.9c-6,9.7-8,21.8-6,36l22.3,156.6c2,14.1,7.3,25.2,15.8,32.9c8,7.3,17.8,11.1,28.3,11.1
					c2.1,0,4.2-0.2,6.3-0.4c12.9-1.8,23.8-8.9,30.6-19.8c6.1-9.8,8.1-22,6.1-36.2l-22.3-156.6c-2-14.3-7.4-25.5-16-33.1
					C705.3,396.1,695.5,392.4,685,392.4L685,392.4z"/>
			</g>
			<g>
				<path d="M766.9,630.1c-7.1,0-13.7-2.4-19.6-7.1c-7-5.5-11.3-12.8-12.5-21.2c-0.6-4-0.6-8.3,0-12.6c0.5-3.4,1.3-8,2.5-13.7
					l27.8-135.6c0.7-3.3,1.5-7.2,2.4-11.7l0.5-2.3c1.3-6.4,3-12,5-16.6c2.5-5.8,6.2-10.8,11.1-14.9c5.2-4.4,11.8-7.1,19.5-8.2
					c2.2-0.3,4.4-0.5,6.5-0.5c5.3,0,10.2,1,14.6,2.9c5.7,2.5,10.7,6.2,14.7,10.9c3.2,3.8,6,8,8.5,12.4c2.1,3.8,4.7,8.8,7.8,14.8
					l65.4,121.3c6.1,11,9.3,19.1,10.2,25.4c1.2,8.2-0.8,16.3-5.8,23.6c-5.3,7.7-12.8,12.5-21.8,13.8c-1.6,0.2-3.2,0.3-4.8,0.3
					c-3.5,0-6.9-0.6-10-1.8c-4.2-1.6-8-4.1-11.2-7.4c-2.6-2.7-5.1-6.2-7.9-11.1c-2.2-3.8-4.2-7.3-5.8-10.3c0,0-0.2-0.3-0.2-0.3
					l-7.5-14.5l-52.9,7.5l-3.1,16.5c-2.3,12-4.5,20-7,25.1c-2.8,5.7-8.9,13-21.9,14.8C769.8,630,768.4,630.1,766.9,630.1z
					 M814,511.6l14.3-2L818,488.9L814,511.6z"/>
				<path class="st11" d="M810,396.7c3.7,0,7.1,0.7,10.2,2c4.2,1.8,7.8,4.5,10.7,8c2.7,3.2,5.1,6.8,7.2,10.6c2,3.7,4.6,8.7,7.7,14.7
					l65.4,121.5c5.3,9.7,8.3,16.8,9,21.7c0.8,5.5-0.6,10.8-4,15.9c-3.5,5.2-8.3,8.2-14.2,9.1c-1.1,0.2-2.2,0.2-3.2,0.2
					c-2.2,0-4.3-0.4-6.2-1.1c-2.7-1-5.1-2.6-7.1-4.7c-1.9-2-3.9-4.9-6.3-9c-2.2-3.8-4.1-7.2-5.7-10.1l0-0.1l-11-21.5l-68.5,9.8
					l-4.5,24.3c-2,10.8-4,18.1-6.1,22.3c-2.4,4.9-7,7.9-13.6,8.8c-1,0.1-1.9,0.2-2.8,0.2c-4.5,0-8.8-1.6-12.8-4.7
					c-4.8-3.8-7.6-8.5-8.4-14.1c-0.4-3-0.4-6.2,0-9.5c0.4-3.1,1.2-7.4,2.4-12.9L776,442.1c0.7-3.3,1.5-7.2,2.4-11.7l0.5-2.3
					c1.2-5.7,2.6-10.5,4.3-14.5c1.8-4.2,4.5-7.9,8-10.8c3.6-3,8.3-5,13.9-5.8C806.8,396.8,808.4,396.7,810,396.7 M800.6,524.7
					l44.4-6.3L813,454L800.6,524.7 M810,374.7c-2.6,0-5.3,0.2-8.1,0.6c-9.8,1.4-18.2,5-25,10.7c-6.2,5.2-10.9,11.6-14.1,19
					c-2.3,5.3-4.2,11.7-5.6,18.8l-0.5,2.3c-0.9,4.5-1.7,8.4-2.4,11.7l-27.8,135.5c-1.3,6.1-2.2,10.8-2.7,14.4
					c-0.7,5.3-0.7,10.6,0,15.6c1.6,11.2,7.3,21,16.6,28.3c7.8,6.2,17,9.5,26.4,9.5c2,0,4-0.1,5.9-0.4c13.8-2,24.6-9.4,30.2-20.8
					c3-6.1,5.5-14.8,8-28l1.6-8.8l37.4-5.3l3.9,7.6c0,0.1,0.1,0.1,0.1,0.2l0,0.1c0.1,0.1,0.1,0.2,0.2,0.3c1.7,3.1,3.7,6.6,5.9,10.5
					c3.3,5.7,6.3,10,9.5,13.3c4.3,4.5,9.4,7.9,15.2,10.1c4.4,1.7,9.1,2.5,13.9,2.5c2.1,0,4.2-0.2,6.3-0.5
					c12.1-1.7,22.3-8.1,29.3-18.5c6.5-9.6,9.1-20.4,7.6-31.3c-1.1-7.8-4.6-16.7-11.4-29.1l-65.3-121.2c-3.1-6.1-5.8-11.1-7.9-15
					c-2.8-5.1-6.1-9.9-9.7-14.3c-5.1-6-11.3-10.7-18.6-13.9C823.2,376,816.8,374.7,810,374.7L810,374.7z"/>
			</g>
		</g>
		<g>
			<linearGradient id="SVGID_1_" gradientUnits="userSpaceOnUse" x1="180.0553" y1="702.7734" x2="154.1805" y2="492.0402">
				<stop  offset="0" style="stop-color:#FF7F00"/>
				<stop  offset="0.1557" style="stop-color:#FF9900"/>
				<stop  offset="0.3689" style="stop-color:#FFB500"/>
				<stop  offset="0.5821" style="stop-color:#FFCA00"/>
				<stop  offset="0.7933" style="stop-color:#FFD600"/>
				<stop  offset="1" style="stop-color:#FFDA00"/>
			</linearGradient>
			<path class="st12" d="M229.4,488.2c-4.3-3.2-10.1-4.3-17.4-3.3L95.6,501.5c-6.9,1-12.1,3.6-15.3,7.7c-3.4,4.2-4.6,9.4-3.7,15.6
				c0.8,5.9,3.4,10.5,7.6,13.7c4.2,3.2,10,4.2,17.2,3.2l36.5-5.2l20.1,140.9c1.3,9,4.3,15.7,8.9,19.8c3.9,3.5,8.5,5.3,13.6,5.3
				c1.1,0,2.2-0.1,3.3-0.2c6.4-0.9,11.3-4.1,14.7-9.5c3.2-5.2,4.2-12.5,2.9-21.6l-20.1-140.9l36.5-5.2h0c7.1-1,12.4-3.7,15.7-7.9
				c3.3-4.2,4.5-9.4,3.7-15.3C236.2,496,233.6,491.4,229.4,488.2z"/>
			
				<linearGradient id="SVGID_00000116199823820954441890000013539607508542272151_" gradientUnits="userSpaceOnUse" x1="349.2803" y1="679.8256" x2="323.3875" y2="468.9457">
				<stop  offset="0" style="stop-color:#FF7F00"/>
				<stop  offset="0.1557" style="stop-color:#FF9900"/>
				<stop  offset="0.3689" style="stop-color:#FFB500"/>
				<stop  offset="0.5821" style="stop-color:#FFCA00"/>
				<stop  offset="0.7933" style="stop-color:#FFD600"/>
				<stop  offset="1" style="stop-color:#FFDA00"/>
			</linearGradient>
			<path style="fill:url(#SVGID_00000116199823820954441890000013539607508542272151_);" d="M420.7,633.1
				c-3.6-6.5-8.4-13.7-14.3-21.5c-5.9-7.8-12.5-15.2-19.6-21.8c-5-4.7-10-8.5-15.1-11.4c12-5.8,20.9-13.2,26.5-22.1
				c6.8-10.6,9.1-23.9,6.9-39.5c-1.1-7.6-3.3-14.7-6.7-21.2c-3.4-6.5-7.8-12.1-13.2-16.7c-5.4-4.5-11.4-7.8-17.8-9.8
				c-5.4-1.8-11.2-2.6-17.5-2.6c-6.1,0.1-13.4,0.7-21.7,1.9l-59.5,8.5c-8.9,1.3-15.2,4.5-18.7,9.8c-3.5,5.2-4.6,12.4-3.2,22.1
				l21.8,153c1.3,8.8,4.1,15.4,8.4,19.6c3.8,3.7,8.4,5.5,13.8,5.5c1.2,0,2.4-0.1,3.6-0.3c6.5-0.9,11.4-4.1,14.8-9.4
				c3.2-5.2,4.2-12.4,2.9-21.7l-8.6-60.4l9.4-1.3h0c6-0.8,11.1-0.7,15.1,0.4c4,1.1,8.3,3.8,12.7,8c4.7,4.4,10.4,11.1,16.9,20
				l18.5,24.8c4.4,5.9,7.9,10.4,10.4,13.4c2.7,3.3,5.9,5.9,9.3,7.9c3.8,2.1,8.1,2.8,13,2.1c4-0.6,7.6-2,10.5-4.2
				c2.9-2.2,5.1-5.1,6.5-8.4c1.4-3.4,1.9-6.7,1.4-10C426.5,644.6,424.5,640,420.7,633.1z M359.4,540.6c-2.2,3.8-5.9,6.8-10.9,9
				c-5.4,2.4-12.5,4.2-20.9,5.4l-29.3,4.2l-6.8-47.7l30.3-4.3c14.9-2.1,21.4-1.6,24.2-0.7c4.2,1.2,7.5,3.5,10.2,6.8
				c2.7,3.3,4.5,7.5,5.1,12.3C362.3,531.8,361.6,536.9,359.4,540.6z"/>
			
				<linearGradient id="SVGID_00000170276878680978300260000001170615018881828014_" gradientUnits="userSpaceOnUse" x1="469.3866" y1="661.6028" x2="443.2327" y2="448.5966">
				<stop  offset="0" style="stop-color:#FF7F00"/>
				<stop  offset="0.1557" style="stop-color:#FF9900"/>
				<stop  offset="0.3689" style="stop-color:#FFB500"/>
				<stop  offset="0.5821" style="stop-color:#FFCA00"/>
				<stop  offset="0.7933" style="stop-color:#FFD600"/>
				<stop  offset="1" style="stop-color:#FFDA00"/>
			</linearGradient>
			<path style="fill:url(#SVGID_00000170276878680978300260000001170615018881828014_);" d="M466.9,473.6c-1.3-9-4.3-15.7-8.9-19.8
				c-4.8-4.2-10.5-5.9-17.1-5c-6.4,0.9-11.3,4.1-14.7,9.6c-3.2,5.2-4.2,12.4-2.9,21.3l22.3,156.6c1.3,8.9,4.2,15.6,8.8,19.7
				c4,3.6,8.5,5.4,13.6,5.4c1,0,2.1-0.1,3.2-0.2c6.6-0.9,11.6-4.2,15-9.6c3.3-5.2,4.3-12.5,3-21.5L466.9,473.6z"/>
			
				<linearGradient id="SVGID_00000160910737347327169520000015055537583722440639_" gradientUnits="userSpaceOnUse" x1="587.9191" y1="644.6917" x2="561.6175" y2="430.4825">
				<stop  offset="0" style="stop-color:#FF7F00"/>
				<stop  offset="0.1557" style="stop-color:#FF9900"/>
				<stop  offset="0.3689" style="stop-color:#FFB500"/>
				<stop  offset="0.5821" style="stop-color:#FFCA00"/>
				<stop  offset="0.7933" style="stop-color:#FFD600"/>
				<stop  offset="1" style="stop-color:#FFDA00"/>
			</linearGradient>
			<path style="fill:url(#SVGID_00000160910737347327169520000015055537583722440639_);" d="M642.9,431.6c-2.3-3.1-5.2-5.5-8.6-7.1
				c-3.5-1.6-7.2-2.2-11-1.6c-5.1,0.7-9.1,2.7-11.8,6c-2.5,3-4.2,6.2-5,9.7c-0.7,3-1.6,8.1-2.8,15.6L583.6,583l-55-117.1
				c-4.2-9.2-7.9-15.7-11.3-19.8c-4-4.8-9.8-6.7-17.3-5.6c-6.1,0.9-10.9,3.9-14.3,9c-3.3,5-4.6,10.3-3.8,15.8
				c0.3,2.1,0.9,4.4,1.9,7.2c1,2.7,2,5.2,3.2,7.5c1.1,2.1,2.2,4.3,3.2,6.6l61.3,122.6c2.3,4.8,4.5,9.3,6.7,13.5
				c2.3,4.4,4.8,8.3,7.6,11.7c2.9,3.6,6.6,6.4,10.8,8.2c3,1.3,6.4,2,10.1,2c1.5,0,3.1-0.1,4.7-0.3c5.6-0.8,10.2-2.8,13.8-5.8
				c3.5-3,6.2-6.6,8-10.8c1.7-3.9,3-8.3,4-13.3c0.9-4.7,1.8-9.7,2.7-14.9l25.3-136.2c0.4-2.4,0.8-4.8,1.2-7.1
				c0.4-2.4,0.8-4.9,0.9-7.4c0.2-2.6,0.1-5.1-0.2-7.3C646.6,438,645.2,434.7,642.9,431.6z"/>
			
				<linearGradient id="SVGID_00000161628950301947046030000006528549428907770536_" gradientUnits="userSpaceOnUse" x1="709.9681" y1="627.339" x2="683.8143" y2="414.3338">
				<stop  offset="0" style="stop-color:#FF7F00"/>
				<stop  offset="0.1557" style="stop-color:#FF9900"/>
				<stop  offset="0.3689" style="stop-color:#FFB500"/>
				<stop  offset="0.5821" style="stop-color:#FFCA00"/>
				<stop  offset="0.7933" style="stop-color:#FFD600"/>
				<stop  offset="1" style="stop-color:#FFDA00"/>
			</linearGradient>
			<path style="fill:url(#SVGID_00000161628950301947046030000006528549428907770536_);" d="M707.5,439.4c-1.3-9-4.3-15.7-8.9-19.8
				c-4.8-4.2-10.5-5.9-17-5c-6.4,0.9-11.3,4.1-14.7,9.6c-3.2,5.2-4.2,12.4-2.9,21.3l22.3,156.6c1.3,8.9,4.2,15.6,8.8,19.7
				c4,3.6,8.5,5.4,13.6,5.4c1,0,2.1-0.1,3.2-0.2c6.6-0.9,11.6-4.2,15-9.6c3.3-5.3,4.3-12.5,3-21.5L707.5,439.4z"/>
			
				<linearGradient id="SVGID_00000023267775275644478050000004981918385106072241_" gradientUnits="userSpaceOnUse" x1="835.8094" y1="610.7495" x2="809.4997" y2="396.4737">
				<stop  offset="0" style="stop-color:#FF7F00"/>
				<stop  offset="0.1557" style="stop-color:#FF9900"/>
				<stop  offset="0.3689" style="stop-color:#FFB500"/>
				<stop  offset="0.5821" style="stop-color:#FFCA00"/>
				<stop  offset="0.7933" style="stop-color:#FFD600"/>
				<stop  offset="1" style="stop-color:#FFDA00"/>
			</linearGradient>
			<path style="fill:url(#SVGID_00000023267775275644478050000004981918385106072241_);" d="M920.2,575.1c-0.7-4.9-3.6-12-9-21.7
				l-65.4-121.5c-3.1-6-5.7-11-7.7-14.7c-2.1-3.8-4.5-7.4-7.2-10.6c-2.9-3.4-6.5-6.1-10.7-8c-4.3-1.9-9.4-2.4-15.1-1.6
				c-5.6,0.8-10.3,2.7-13.9,5.8c-3.5,3-6.2,6.6-8,10.8c-1.7,3.9-3.1,8.8-4.3,14.5l-0.5,2.3c-0.9,4.5-1.7,8.4-2.4,11.7l-27.8,135.6
				c-1.2,5.5-2,9.8-2.4,12.9c-0.5,3.3-0.5,6.5,0,9.5c0.8,5.6,3.6,10.3,8.4,14.1c4,3.2,8.3,4.7,12.8,4.7c0.9,0,1.9-0.1,2.8-0.2
				c6.6-0.9,11.2-3.9,13.6-8.8c2-4.1,4-11.4,6.1-22.3l4.5-24.3l68.5-9.8l11,21.5l0,0.1c1.6,2.9,3.5,6.3,5.7,10.1
				c2.3,4.1,4.4,7,6.3,9c2,2.1,4.4,3.7,7.1,4.7c2.8,1,5.9,1.3,9.4,0.8c5.9-0.8,10.7-3.9,14.2-9.1C919.7,585.9,921,580.6,920.2,575.1
				z M845,518.3l-44.4,6.3L813,454L845,518.3z"/>
		</g>
	</g>
</g>
</svg>
