<?xml version="1.0" encoding="UTF-8"?>
<svg id="Layer_1" data-name="Layer 1" xmlns="http://www.w3.org/2000/svg" xmlns:xlink="http://www.w3.org/1999/xlink" viewBox="0 0 1445.36 1432.33">
  <defs>
    <style>
      .cls-1 {
        fill: url(#linear-gradient);
      }

      .cls-1, .cls-2, .cls-3, .cls-4, .cls-5, .cls-6, .cls-7, .cls-8, .cls-9, .cls-10, .cls-11, .cls-12 {
        stroke-width: 0px;
      }

      .cls-2 {
        fill: #fbfefd;
      }

      .cls-3 {
        fill: none;
      }

      .cls-4 {
        fill: #42002d;
      }

      .cls-5 {
        fill: #fcc445;
      }

      .cls-6 {
        fill: #e1cbc8;
      }

      .cls-7 {
        fill: #03f6ff;
      }

      .cls-13 {
        clip-path: url(#clippath);
      }

      .cls-8 {
        fill: #870035;
      }

      .cls-9 {
        fill: #ffc900;
      }

      .cls-10 {
        fill: #ffe;
      }

      .cls-11 {
        fill: #ff4a4d;
      }

      .cls-12 {
        fill: #f74741;
      }
    </style>
    <clipPath id="clippath">
      <path id="SVGID" class="cls-3" d="m1342.68,1164.68c0-108.37-86.35-196.22-192.86-196.22s-192.86,87.85-192.86,196.22,120.95,208.21,190.95,208.21c73.64,0,194.76-99.85,194.76-208.21Z"/>
    </clipPath>
    <linearGradient id="linear-gradient" x1="1160.76" y1="1279.35" x2="1137.62" y2="1137.92" gradientUnits="userSpaceOnUse">
      <stop offset="0" stop-color="#f99804"/>
      <stop offset=".14" stop-color="#f9a503"/>
      <stop offset=".55" stop-color="#fbc902"/>
      <stop offset=".77" stop-color="#fcd702"/>
    </linearGradient>
  </defs>
  <path class="cls-4" d="m1149.83,1391.8c-39.69,0-92.31-24.27-134.05-61.83-48.89-43.99-75.81-111.65-75.81-165.29,0-117.57,94.15-213.22,209.87-213.22s209.86,95.65,209.86,213.22-126.99,227.12-209.86,227.12Z"/>
  <path class="cls-7" d="m1342.68,1164.68c0-108.37-86.35-196.22-192.86-196.22s-192.86,87.85-192.86,196.22,120.95,208.21,190.95,208.21c73.64,0,194.76-99.85,194.76-208.21Z"/>
  <g>
    <path class="cls-4" d="m1144.58,1432.33c-29.93,0-54.32-24.01-54.66-53.66-.08-6.91,1.68-18.99,2.59-24.84,2.38-15.27,3.86-15.28,5.1-26.94,1.3-12.23.08-16.12,3.49-20.84,4.14-5.74,11.45-7.62,17.04-8.29h52.9c9.79.34,13.66,4.01,15.21,6,1.8,2.31,1.82,4.09,3.6,15.28,0,0,1.35,8.55,2.86,16.73,1.76,9.56,2.64,11.39,3.95,18.06,2.51,12.78,2.61,23.06,2.59,24.84-.34,29.65-24.73,53.66-54.66,53.66Z"/>
    <g>
      <path class="cls-2" d="m1161.92,1336.41l-17,3.58-32.48-6.68c1.35-6.74,2.34-12.97,2.1-18.55h45.72s.07,7.14,1.66,21.65Z"/>
      <path class="cls-6" d="m1161.92,1336.41c-1.59-14.51-1.66-21.65-1.66-21.65h14.35c-.24,5.57.75,11.8,2.1,18.53l-14.79,3.12Z"/>
      <path class="cls-2" d="m1164.55,1381.29c-2.89,18.23-9.91,30.94-19.97,34.03-10.4,0-19.81-5.41-26.63-14.16-5.47-7.02-9.26-16.17-10.54-26.42,18.66,9.43,37.71,11.54,57.14,6.55Z"/>
      <path class="cls-6" d="m1181.7,1375.08c-3.01,22.85-18.48,40.24-37.12,40.24,10.06-3.09,17.08-15.8,19.97-34.03,5.68-1.47,11.4-3.53,17.15-6.21Z"/>
      <path class="cls-6" d="m1182.15,1360.07l-16.3,4.89c-.18-4.54-.51-9.23-1.02-14.03-.1-.92-.19-1.85-.28-2.74,4.76-1.42,9.51-2.84,14.27-4.26.95,1.86,2.04,4.46,2.72,7.69.72,3.38.75,6.32.61,8.45Z"/>
      <path class="cls-2" d="m1165.85,1364.96l-20.93,6.26-37.92-11.06c-.06-2.34.05-5.22.6-8.47.53-3.11,1.34-5.76,2.14-7.89,11.73,3.42,23.45,6.84,35.18,10.26l19.63-5.88c.09.89.18,1.82.28,2.74.51,4.8.84,9.49,1.02,14.03Z"/>
    </g>
  </g>
  <g class="cls-13">
    <g>
      <path class="cls-8" d="m1237.73,1202.36c2.55-4.21,7.47-7.21,12.33-6.43,1.75.28,3.45,1.06,4.62,2.39s1.73,3.24,1.22,4.93c-.43,1.43-1.63,2.61-3.07,3.02-1.23.35-2.55.17-3.82.31-3.4.37-6.33,3.37-6.63,6.78-.23,2.64.83,5.69-.9,7.7-3.45,4-6.55-1.66-6.57-4.81-.02-4.78.29-9.69,2.83-13.88Z"/>
      <path class="cls-8" d="m999.62,1054.82c2.55-4.21,7.47-7.21,12.33-6.43,1.75.28,3.45,1.06,4.62,2.39s1.73,3.24,1.22,4.93c-.43,1.43-1.63,2.61-3.07,3.02-1.23.35-2.55.17-3.82.31-3.4.37-6.33,3.37-6.63,6.78-.23,2.64.83,5.69-.9,7.7-3.45,4-6.55-1.66-6.57-4.81-.02-4.78.29-9.69,2.83-13.88Z"/>
      <path class="cls-8" d="m1239.66,1242.17c2.05,3.18,5.73,5.25,9.51,5.35,1.27.03,2.62-.18,3.61-.97,1.29-1.03,1.71-2.85,1.48-4.48-.23-1.63-1.01-3.12-1.78-4.58-1.34-2.54-2.76-5.17-5.09-6.84-2.28-1.63-7.03-2.31-8.69.6-1.79,3.16-.9,8.04.95,10.92Z"/>
      <path class="cls-8" d="m987.29,1081.51c1.94-.73,4.24-.77,6,.34s2.72,3.52,1.81,5.39c-.6,1.23-1.83,2.01-3,2.73-1.25.76-2.5,1.53-3.75,2.29-1.23.75-2.63,1.54-4.04,1.23-3-.65-3.17-4.71-2.59-7.09s3.43-4.09,5.58-4.89Z"/>
      <path class="cls-8" d="m1002,1115.04c1.57.74,3.17,1.5,4.43,2.7s2.15,2.91,1.92,4.63c-.3,2.2-2.38,3.84-4.56,4.28s-4.43-.05-6.58-.63c-2.98-.81-5.91-1.8-8.78-2.96-2.2-.89-4.47-1.97-5.8-3.93-1.5-2.2-1.45-5.34.12-7.5,1.79-2.46,5.11-3.32,7.8-2.01,3.79,1.85,7.64,3.61,11.45,5.42Z"/>
      <path class="cls-8" d="m1325.07,1103.07c1.88-.7,4.24-.54,5.61.93,1.5,1.6,1.34,4.26.16,6.11-1.18,1.85-3.14,3.05-5.1,4.03-1.59.79-3.36,1.5-5.09,1.11-1.78-.41-3.18-2.08-3.28-3.9-.18-3.3,4.94-7.25,7.7-8.28Z"/>
      <path class="cls-8" d="m1305.45,1056.62c1.74.82,2.76,2.68,3.26,4.54.63,2.36.59,4.93-.38,7.18s-2.9,4.11-5.25,4.74-5.09-.08-6.65-1.96c-4.19-5.02,2.13-17.76,9.02-14.51Z"/>
      <path class="cls-8" d="m1294.92,1093.73c.47-2.2,1.31-4.47,3.13-5.8,2.38-1.74,5.94-1.27,8.19.63s3.32,4.94,3.4,7.9-.72,5.86-1.65,8.66c-.86,2.58-1.95,5.26-4.13,6.91-9.65,7.28-9.88-13.85-8.94-18.29Z"/>
      <path class="cls-8" d="m1224.43,1270.68c4.62.87,9.66-1.35,12.14-5.35,1.36-2.19,1.89-5.21.32-7.26-1.07-1.4-2.89-2.04-4.65-2.08s-3.48.44-5.17.91c-3.16.89-11.04,1.43-11.13,5.9-.08,4,5.04,7.26,8.48,7.88Z"/>
      <path class="cls-8" d="m1258.74,1282.67c1.42-.75,3.32-.82,4.5.27,1.15,1.06,1.27,2.91.69,4.37s-1.7,2.62-2.8,3.73c-.96.98-2.09,2.03-3.47,2.01-1.42-.02-2.6-1.26-2.94-2.64-.79-3.13,1.31-6.31,4.02-7.74Z"/>
      <path class="cls-8" d="m1215.01,1293.47c1.98-.4,4.05-.57,6.02-.15s3.87,1.5,4.97,3.2c1.1,1.7,1.25,4.05.12,5.73-.78,1.15-2.07,1.88-3.39,2.31s-2.72.58-4.09.84c-5.05.94-9.83,3.25-13.71,6.61-1.07.93-2.18,1.99-3.59,2.13-1.53.16-3.02-.91-3.66-2.31s-.55-3.05-.07-4.52c.46-1.4,1.29-2.62,1.77-4.01.44-1.27,1.25-2.09,2.23-2.99,2.39-2.2,5.17-3.97,8.16-5.23,1.69-.71,3.45-1.25,5.24-1.61Z"/>
      <path class="cls-8" d="m1237.75,1315.12c1.41.22,2.82.6,4.01,1.38s2.13,2.04,2.28,3.45c.2,1.82-.94,3.58-2.47,4.59-1.52,1.01-3.37,1.38-5.19,1.6-2.5.3-5.04.35-7.55.14-1.68-.14-3.44-.44-4.72-1.52-1.16-.98-1.78-2.56-1.59-4.07.37-2.99,3.27-4.01,5.75-4.81,3.04-.98,6.32-1.26,9.48-.76Z"/>
      <path class="cls-8" d="m1087.58,1292.4c1.71.6,3.37,1.49,4.52,2.88s1.72,3.36,1.12,5.07c-.48,1.36-1.64,2.4-2.94,3.02s-2.75.86-4.18,1.02c-3.06.34-6.15.35-9.21.02-1.63-.17-3.27-.45-4.76-1.14s-2.82-1.84-3.43-3.36c-1.68-4.17,3.31-6.22,6.44-7.36,3.97-1.44,8.44-1.55,12.43-.15Z"/>
      <path class="cls-8" d="m1077.99,1315.28c1.86.46,3.75,1.13,5.14,2.45,1.4,1.32,2.19,3.43,1.49,5.22-.46,1.17-1.48,2.06-2.62,2.58s-2.4.73-3.65.89c-3.35.4-6.72.43-10.09.46-3.21.03-6.41.05-9.62.08-1.33.01-2.71.01-3.92-.53-1.79-.8-2.96-2.83-2.74-4.78.41-3.6,4.37-4.37,7.18-5.38,3.82-1.36,7.89-2.01,11.94-1.9,2.32.06,4.64.37,6.89.93Z"/>
    </g>
  </g>
  <g>
    <path class="cls-5" d="m1277.5,1054.37c0,28.46-10.01,54.67-26.81,75.54-5.76,7.18-12.35,13.73-19.61,19.51h4.47l-9.02,26.96-53.62,117.01h-58.93l-49.72-122.66-6.38-21.31h10.71c-7.26-5.78-13.84-12.33-19.61-19.51-16.8-20.87-26.81-47.08-26.81-75.54,0-68.06,57.16-123.23,127.67-123.23s127.67,55.18,127.67,123.23Z"/>
    <path class="cls-11" d="m1091.02,937.95c28.33-6.7,58.73-7.43,86.25,1.89s51.76,29.48,61.71,55.94c3.75,9.98,5.44,20.98,2.76,31.28s-10.22,19.75-20.64,23.16c8.87,2.91,14.13,10.89,15.5,19.84,1.37,8.94-.87,18.02-3.59,26.67-8.19,25.99-20.91,7.13-33.56,31.39-8.06,15.45-16.12,30.89-24.17,46.34-9.3,17.82-13.88,35.99-20.97,54.74-2.92,7.71-22.07-33.72-27.73-27.59-10.27,11.13-12.79,63.33-26.13,55.82,1.26,15.14,5.88,30.02,13.45,43.33,13.89.79,27.79,1.58,41.68,2.37,5.5.31,11.35.55,16.14-2.06,7.81-4.25,10.19-13.43,11.13-16.78,13.98-50.06,43.63-125.5,62.72-148.24,7.94-9.46,11.39-13.05,11.39-13.05,9.52-9.87,14.79-13.02,21.29-22.22,0,0,4.54-4.24,6.22-10.49,7.25-27.03,1.13-55.6-6.24-82.59-6.48-23.71-27.7-42.8-47.4-58.29s-43.39-26.71-68.58-29.91c-25.19-3.19-50.68,4-71.22,18.43Z"/>
    <path class="cls-2" d="m1146.39,1282.24c-1.27,2.95-3.95,5.15-7.22,5.55-4.93.61-9.94.59-14.86-.07-2.63-.35-5.76-1.37-6.25-3.89-.26-1.34.39-2.73,1.38-3.7s2.24-1.73,3.59-2.13c6.08-1.81,12.59-2.3,19.33-4.48,7.78-2.51,16.09-8,22.27-13.21,1.07-.9,2.62.35,1.9,1.52-1.4,2.27-3.42,4.25-5.55,5.96-3.55,2.85-7.57,5.2-10.67,8.52-1.71,1.82-2.98,3.79-3.91,5.94Z"/>
    <path class="cls-12" d="m1128.17,987.2c6.1-.4,12.22.23,18.3.87,2.77.29,5.58.59,8.19,1.56s5.02,2.7,6.17,5.15c1.15,2.45.73,5.67-1.41,7.4-1.36,1.1-3.22,1.48-4.99,1.43s-3.51-.48-5.24-.84c-9.02-1.88-18.47-1.82-27.46.17-3.44.76-7.28,1.75-10.3-.02-1.77-1.04-2.93-2.97-2.97-4.97-.2-8.34,13.51-10.33,19.72-10.74Z"/>
    <path class="cls-4" d="m1120.26,1037.62c3.77.06,7.51-.7,11.28-.64,8.53.14,16.69,4.7,21.69,11.38,4.99,6.68,6.93,15.26,6.03,23.45-.9,8.19-4.5,15.98-9.58,22.59-1.68,2.19-3.54,4.28-4.85,6.69s-2.06,5.25-1.32,7.88c1.05,3.73,5.02,6.28,9.02,6.49,4,.21,7.9-1.59,10.88-4.17,2.98-2.59,5.15-5.91,7.12-9.28,8.33-14.21,13.9-30.76,10.88-46.82-3.52-18.73-19.48-34.72-38.74-38.8-9.96-2.11-21.51-.96-29.98,4.94-2.86,2-4.13,5.19-3.8,8.63.53,5.47,6.4,7.58,11.39,7.67Z"/>
    <path class="cls-4" d="m1220.28,1133.53c-.91,0-1.84-.14-2.76-.42-4.68-1.47-7.24-6.32-5.72-10.84.84-2.5,20.68-61.36,23.47-69.21,3.39-9.51,12.09-13.37,18.96-12.26,5.35.86,9.08,4.83,9.08,9.65s-3.99,8.6-8.91,8.6c-.8,0-1.57-.1-2.3-.29-2.89,8.15-23.14,68.22-23.34,68.83-1.22,3.63-4.72,5.94-8.47,5.94Zm25.21-83.07h0s0,0,0,0Zm0-.02h0s0,0,0,0Z"/>
    <path class="cls-10" d="m1150.72,974.71c-.4,3.77-3.89,6.53-7.83,6.13-18.87-1.9-51.28,15.88-57.18,47-6.23,32.86,22.44,124.8,22.73,125.73,1.14,3.64-.99,7.48-4.75,8.58-.69.21-1.39.3-2.08.3-3.05,0-5.88-1.92-6.82-4.89-.1-.31-.36-1.15-.76-2.47,2.9-2.08,4.31-5.75,3.26-9.29-.21-.69-18.04-60.37-24.92-84.08-1.85-14.18-2.44-27.11-.68-36.36,7.44-39.27,47.99-60.72,72.69-58.2,3.91.39,6.76,3.77,6.35,7.56Z"/>
    <path class="cls-4" d="m1094.02,1155.09c-.83.61-1.78,1.07-2.84,1.37-.83.23-1.66.33-2.47.33-3.87,0-7.44-2.44-8.57-6.22-.12-.4-.57-1.89-1.26-4.22-5.04-16.91-23.29-78.14-26.1-88.45-3.43.8-7.19-.42-9.36-3.37-1.2-1.63-1.72-3.52-1.64-5.37.12-2.56,1.41-5.04,3.73-6.63,1.11-.76,6.99-4.43,13.93-2,3.57,1.25,8.29,4.51,10.56,12.89.42,1.55,1.24,4.45,2.35,8.29,6.88,23.71,24.71,83.39,24.92,84.08,1.06,3.54-.36,7.22-3.26,9.29Z"/>
    <path class="cls-12" d="m1078.88,1146.35c-.87,1.16-2.09,2.09-3.59,2.62-.87.31-1.77.45-2.65.45-3.15,0-6.11-1.87-7.25-4.9-1.01-2.67-24.77-65.87-24.14-92.86.02-.88.2-1.72.52-2.5-.08,1.85.44,3.74,1.64,5.37,2.17,2.95,5.93,4.18,9.36,3.37,2.8,10.31,21.06,71.54,26.1,88.45Z"/>
    <path class="cls-4" d="m1149.83,911.63c-81.55,0-147.88,64.03-147.88,142.73,0,34.25,12.57,65.73,33.49,90.36l61.56,162.22c1.06,3.52,4.4,5.95,8.2,5.95h76.22c3.7,0,6.98-2.31,8.12-5.71l65.55-152.65c26.35-25.79,42.61-61.17,42.61-100.16,0-78.7-66.33-142.73-147.87-142.73Zm23.08,381.75h-58.93c-15.36-51.27-30.73-102.54-46.09-153.81-3.34,3.28-6.67,6.56-10.01,9.84h10.71c-7.26-5.78-13.84-12.33-19.61-19.51-16.8-20.87-26.81-47.08-26.81-75.54,0-68.06,57.16-123.23,127.67-123.23s127.67,55.18,127.67,123.23c0,28.46-10.01,54.67-26.81,75.54-5.76,7.18-12.35,13.73-19.61,19.51h4.47c-4.22-1.81-8.44-3.63-12.65-5.44-16.66,49.8-33.32,99.61-49.98,149.41Z"/>
  </g>
  <g>
    <path class="cls-4" d="m1384.87,1151.03c1.57,7.43,4.86,25.43,4.86,25.43,0,0-18,7.14-31.29,0,0,0,1.43-14,3.86-24.71,2.43-10.72,5.7-12.86,10.92-12.86s10.08,4.71,11.65,12.14Z"/>
    <path class="cls-4" d="m1030.63,1176.71s1.72,3.97,4.08,5.89c0,0-13.29,15.43-21.65,28.83l-5.68-24.42s20.9-8.05,23.25-10.3Z"/>
    <path class="cls-4" d="m969.79,1284.33c3.35,16.5,5.38,39.19-20.12,47.33-2.88.92-5.84,1.39-8.79,1.39h-.01c-18.14-.01-32.25-16.26-35.92-41.41-.29-1.99-.64-4.32-1.02-6.93-2.79-18.83-5.69-38.88-7.59-55.06h-.02c-4.66,1.77-9.2,2.68-13.49,2.68-14.69,0-25.96-10.65-28.06-26.5-2.19-16.59,2.7-38.71,23.68-46.46.46-.17,44.53-16.42,55.08-20.59,6.96-2.74,12.6-4.02,17.77-4.02,8.36,0,15.45,3.49,20.11,9.53,9.87-7.47,24.07-12.94,35.69-16.51,6.2-1.91,13.24-2.96,19.83-2.96,11.36,0,21.77,3.04,30.09,8.79,3.11,2.16,5.95,4.48,8.51,6.95,4.95-11.87,15.21-15.97,22.41-17.37,2.53-.49,5-.74,7.35-.74,4.33,0,12.05.94,18.63,6.61,3.16-3.31,7.54-6.42,13.6-8.75,4.51-1.74,9-2.63,13.33-2.63,6.96,0,23.98,2.57,31.8,26.32.76,2.31,1.97,6.19,3.41,10.91,3.2-9.62,5.89-17.55,6.98-20.39,8.36-21.82,24.36-26.4,36.31-26.4.86,0,1.75.02,2.63.07,10.83.58,17.7,4.36,22.03,8.5,5.37-6.7,12.8-9.42,18.38-10.5,2.53-.49,5.01-.74,7.35-.74,7.63,0,25.8,2.88,29.65,29.54l1.46,10.2c1.39,9.66,3.55,24.71,5.65,39.25,3.08-20.93,7.14-46.29,10.11-56.52,10.71-36.78,36.69-44.64,56.59-44.75h.37c16.33,0,30.44,6.3,40.82,18.22,7.89,9.06,13.44,21.3,16.06,35.39,3.29,17.69,12.18,66.46,13.86,79.67,1.01,7.83,1.7,16.19.05,24.28-2.64,12.85-10.69,21.8-22.67,25.23-4.11,1.17-7.81,1.74-11.31,1.74-21.76,0-26.51-20.39-28.07-27.1-.41-1.76-.81-3.61-1.2-5.48-3.08.56-6.39.9-9.85.9-.45,0-.89,0-1.34-.01-.2,13.11-5.15,21.14-9.46,25.66-6.21,6.5-14.76,9.94-24.74,9.94h-.22c-9.89-.05-18.7-3.96-24.81-11.02-1.34-1.55-2.53-3.23-3.59-5.02-4,5.64-9.82,9.57-17.08,11.29-3.41.81-6.54,1.21-9.56,1.21-11.88,0-21.51-6.26-27.09-17.6-3.71-7.54-6.04-17.96-7.55-33.75-.33-2.74-2.84-23.23-5.04-41.63-9.83,25.61-25.07,64.42-31.96,78.75-7.66,15.91-18.61,24.79-32.54,26.38-1.23.14-2.48.21-3.72.21-13.79,0-26.47-8.7-34.23-22.83-1.91,13.71-10.19,23.28-22.76,26.27-3.42.81-6.54,1.2-9.57,1.2-5.38,0-10.3-1.3-14.59-3.76-.28.52-.57,1.02-.85,1.48-2.87,4.68-6.94,8.41-11.79,10.97-4.84,2.57-10.46,3.96-16.42,3.96-8.2,0-16.18-2.65-22.47-7.45-1.39-1.07-2.94-2.37-4.65-3.89.08,3.25-.26,6.58-1.3,9.99-2.91,9.46-10.16,16.16-21.53,19.92-3.17,1.05-6.38,1.58-9.53,1.58-15.93,0-28.24-13.1-32.15-33.73m446.3-34.54c13-3.71,12-18.71,10.42-31-1.57-12.28-10-58.71-13.71-78.71-3.71-20-15.43-39.86-40.43-39.71-25,.14-35.43,15.57-40.36,32.5-4.92,16.92-13.92,85.07-13.92,85.07-3.88,27.81,5.11,36.8,16.57,36.85,10.28.06,18-6,17.28-21.28-.77-16.56,0-19.86,0-19.86,20,13.29,41.43-1.43,41.43-1.43,0,0,2.14,14.29,4.57,24.72,2.43,10.43,5.15,16.57,18.15,12.85Zm-130.93.72c14.43-3.43,9.43-23.72,8.71-28.43-3.05-20.17-10.75-74.07-12.25-84.47-1.5-10.39-5.67-16.71-16.92-14.53s-12.33,11.43-11.25,21.93c1.07,10.5,8.35,70.07,8.35,70.07,2.93,31,8.93,38.85,23.36,35.43Zm-52.88-103.29c5-13.71,1.14-21.14-12.15-21.85-13.28-.72-18.85,6.85-22.14,15.42-3.29,8.58-23.57,71.15-23.57,71.15,0,0-15.14-51.15-18.86-62.43-3.71-11.29-11-17.72-22.86-13.14-11.85,4.57-13,12.71-8.85,27.28,4.14,14.57,20.28,63.72,25.43,79,4.52,13.45,14.14,22,24.14,20.86s15.43-9.14,19.14-16.86c9.1-18.9,34.72-85.71,39.72-99.43Zm-121.58,120.29c14.43-3.43,9.43-23.72,8.72-28.43-3.06-20.17-10.75-74.07-12.25-84.46-1.5-10.4-5.68-16.72-16.93-14.54-11.25,2.18-12.32,11.43-11.25,21.93s8.36,70.07,8.36,70.07c2.93,31,8.93,38.86,23.35,35.43Zm-35.57,6.57c5-8.14,1-15.57-5.85-22.43-6.86-6.86-30-26.86-30-26.86,0,0,6.57-9.14,13.57-18.14s11.14-17.14,11.14-28.86-6-22-17.57-30-26.89-6.14-35.25-3.57-29.47,10.07-35.04,18.32c-5.57,8.25-2.78,20.47,0,40.18,2.79,19.72,9.86,75.22,9.86,75.22,1.39,10.88,7.18,26.68,20.14,22.39,12.97-4.29,12-11.89,9.97-21.64-2.04-9.75-6.65-32.68-6.65-34.82s1.72-3.22,7.72,2.25c6,5.46,24.25,24.82,32.11,30.82,7.85,6,20.85,5.28,25.85-2.86Zm-119.14-82.57c5.14-1.86,8.14-4.86,7.57-10.29s-2.57-14.14-4.71-22.43c-2.15-8.28-9.15-8.28-20-4-10.86,4.29-55.43,20.72-55.43,20.72-13.15,4.86-13.72,20.71-12.72,28.28,1,7.58,5.72,14.72,17.86,10.43,12.14-4.28,21.72-9.71,21.72-9.71.28,16.86,7.85,66.28,10.57,84.86,2.71,18.57,12.43,29.57,22.71,26.28,10.29-3.28,12.86-9,7.43-33.28-5.43-24.29-13.57-84-13.57-84,0,0,13.43-5,18.57-6.86Z"/>
    <path class="cls-1" d="m1427.44,1218.6c1.58,12.29,2.58,27.29-10.42,31-13,3.72-15.72-2.42-18.15-12.85-2.43-10.43-4.57-24.72-4.57-24.72,0,0-21.43,14.72-41.43,1.43,0,0-.77,3.3,0,19.86.72,15.28-7,21.34-17.28,21.28-11.46-.05-20.45-9.04-16.57-36.85,0,0,9-68.15,13.92-85.07,4.93-16.93,15.36-32.36,40.36-32.5,25-.15,36.72,19.71,40.43,39.71,3.71,20,12.14,66.43,13.71,78.71Zm-37.71-42.14s-3.29-18-4.86-25.43c-1.57-7.43-6.43-12.14-11.65-12.14s-8.49,2.14-10.92,12.86c-2.43,10.71-3.86,24.71-3.86,24.71,13.29,7.14,31.29,0,31.29,0Zm-107.18-39.04c-1.5-10.39-5.67-16.71-16.92-14.53s-12.33,11.43-11.25,21.93c1.07,10.5,8.35,70.07,8.35,70.07,2.93,31,8.93,38.85,23.36,35.43,14.43-3.43,9.43-23.72,8.71-28.43-3.05-20.17-10.75-74.07-12.25-84.47Zm-83.63,3.18c-3.29,8.58-23.57,71.15-23.57,71.15,0,0-15.14-51.15-18.86-62.43-3.71-11.29-11-17.72-22.86-13.14-11.85,4.57-13,12.71-8.85,27.28,4.14,14.57,20.28,63.72,25.43,79,4.52,13.45,14.14,22,24.14,20.86s15.43-9.14,19.14-16.86c9.1-18.9,34.72-85.71,39.72-99.43,5-13.71,1.14-21.14-12.15-21.85-13.28-.72-18.85,6.85-22.14,15.42Zm-90.82,13.83c-1.5-10.4-5.68-16.72-16.93-14.54-11.25,2.18-12.32,11.43-11.25,21.93s8.36,70.07,8.36,70.07c2.93,31,8.93,38.86,23.35,35.43,14.43-3.43,9.43-23.72,8.72-28.43-3.06-20.17-10.75-74.07-12.25-84.46Zm-37.89,97.03c6.85,6.86,10.85,14.29,5.85,22.43s-18,8.86-25.85,2.86c-7.86-6-26.11-25.36-32.11-30.82-6-5.47-7.72-4.4-7.72-2.25s4.61,25.07,6.65,34.82c2.03,9.75,3,17.35-9.97,21.64-12.96,4.29-18.75-11.51-20.14-22.39,0,0-7.07-55.5-9.86-75.22-2.78-19.71-5.57-31.93,0-40.18,5.57-8.25,26.68-15.75,35.04-18.32s23.68-4.43,35.25,3.57,17.57,18.29,17.57,30-4.14,19.86-11.14,28.86-13.57,18.14-13.57,18.14c0,0,23.14,20,30,26.86Zm-35.5-68.86c-2.36-1.92-4.08-5.89-4.08-5.89-2.35,2.25-23.25,10.3-23.25,10.3l5.68,24.42c8.36-13.4,21.65-28.83,21.65-28.83Zm-74.93-24c-2.15-8.28-9.15-8.28-20-4-10.86,4.29-55.43,20.72-55.43,20.72-13.15,4.86-13.72,20.71-12.72,28.28,1,7.58,5.72,14.72,17.86,10.43,12.14-4.28,21.72-9.71,21.72-9.71.28,16.86,7.85,66.28,10.57,84.86,2.71,18.57,12.43,29.57,22.71,26.28,10.29-3.28,12.86-9,7.43-33.28-5.43-24.29-13.57-84-13.57-84,0,0,13.43-5,18.57-6.86s8.14-4.86,7.57-10.29-2.57-14.14-4.71-22.43Z"/>
  </g>
  <polygon class="cls-9" points="966.81 1016.61 957.42 1031.5 902 988.93 910.55 973.46 966.81 1016.61"/>
  <polygon class="cls-9" points="983.14 1318.07 988.24 1325 936.29 1368.67 930.28 1361.78 983.14 1318.07"/>
  <polygon class="cls-9" points="1271.43 1344.79 1313.3 1407.15 1302.57 1414.64 1260 1353.79 1271.43 1344.79"/>
  <polygon class="cls-9" points="1423.57 1004.07 1426.76 1019.46 1353.08 1036.65 1349.42 1019.93 1423.57 1004.07"/>
  <polygon class="cls-9" points="1356.7 955.06 1318.74 987.87 1314.57 982.78 1351.85 949.5 1356.7 955.06"/>
  <polygon class="cls-9" points="1277.17 881.91 1252.34 928.12 1247.14 924.7 1270 877.5 1277.17 881.91"/>
  <rect class="cls-9" x="1135.14" y="852.93" width="8.86" height="43.14"/>
  <polygon class="cls-9" points="1015.46 881.04 1040.38 936.29 1028.57 942.36 997.71 890.64 1015.46 881.04"/>
  <polygon class="cls-11" points="974 1005.21 966.81 1016.61 910.55 973.46 916.85 962.07 974 1005.21"/>
  <rect class="cls-11" x="853.71" y="1066.07" width="72.86" height="23.14"/>
  <polygon class="cls-11" points="988.24 1325 998.28 1338.64 949.71 1384.07 936.29 1368.67 988.24 1325"/>
  <polygon class="cls-11" points="1282.86 1335.79 1323.43 1400.07 1313.3 1407.15 1271.43 1344.79 1282.86 1335.79"/>
  <polygon class="cls-11" points="1403.3 1340.74 1379.58 1363.59 1321.58 1306.17 1335.3 1291.59 1403.3 1340.74"/>
  <polygon class="cls-11" points="1426.76 1019.46 1429.28 1031.64 1355.42 1047.36 1353.08 1036.65 1426.76 1019.46"/>
  <polygon class="cls-11" points="1356.7 955.06 1368.28 968.36 1328.28 999.5 1318.74 987.87 1356.7 955.06"/>
  <polygon class="cls-11" points="1292.28 891.21 1264.85 936.36 1252.34 928.12 1277.17 881.91 1292.28 891.21"/>
  <rect class="cls-11" x="1144" y="852.93" width="13.69" height="43.14"/>
  <polygon class="cls-11" points="1040.38 936.29 1048.91 932.65 1021.28 878.82 1015.46 881.04 1040.38 936.29"/>
</svg>